<svg id="Layer_4" data-name="Layer 4" xmlns="http://www.w3.org/2000/svg" xmlns:xlink="http://www.w3.org/1999/xlink" viewBox="0 0 443 491.75"><defs><style>.cls-1,.cls-4{fill:none;}.cls-2{fill:#4464ad;}.cls-3{fill:url(#New_Pattern_Swatch_2);}.cls-4{stroke:#663c61;stroke-linecap:round;stroke-linejoin:round;}</style><pattern id="New_Pattern_Swatch_2" data-name="New Pattern Swatch 2" x="-78.5" y="-34.13" width="9.34" height="9.34" patternUnits="userSpaceOnUse" viewBox="0 0 9.34 9.34"><rect class="cls-1" width="9.34" height="9.34"/><circle class="cls-2" cx="7" cy="9.34" r="1.83"/><circle class="cls-2" cx="2.33" cy="9.34" r="1.83"/><circle class="cls-2" cx="9.34" cy="4.67" r="1.83"/><circle class="cls-2" cx="4.67" cy="4.67" r="1.83"/><circle class="cls-2" cy="4.67" r="1.83"/><circle class="cls-2" cx="7" r="1.83"/><circle class="cls-2" cx="2.33" r="1.83"/></pattern></defs><title>anurag-kalra-isometric</title><g id="ANURAG-fill"><polyline class="cls-3" points="34.5 245.87 34.5 344.02 17.5 353.84 17.5 255.69"/><polyline class="cls-3" points="51.5 334.21 68.5 324.39 68.5 226.24 51.5 236.06"/><polyline class="cls-3" points="34.5 304.76 51.5 294.95 51.5 275.32 34.5 285.13"/><polyline class="cls-3" points="34.5 266.18 51.5 256.37 51.5 236.74 34.5 246.55"/><polyline class="cls-3" points="323.5 79.02 323.5 177.17 306.5 186.98 306.5 88.83"/><polyline class="cls-3" points="340.5 167.35 357.5 157.54 357.5 59.39 340.5 69.2"/><polyline class="cls-3" points="323.5 137.91 340.5 128.09 340.5 108.46 323.5 118.28"/><polyline class="cls-3" points="323.5 99.33 340.5 89.51 340.5 69.88 323.5 79.7"/><polygon class="cls-3" points="85.5 216.43 85.5 314.58 102.5 304.76 102.5 245.87 136.5 285.13 153.5 275.32 153.5 177.17 136.5 186.98 136.5 245.87 102.5 206.61 85.5 216.43"/><polygon class="cls-3" points="170.5 167.35 170.5 265.5 221.5 236.06 221.5 137.91 204.5 147.72 204.5 226.24 187.5 236.06 187.5 157.54 170.5 167.35"/><polygon class="cls-3" points="238.5 128.09 238.5 226.24 255.5 216.43 255.5 177.17 272.5 206.61 289.5 196.8 272.5 167.35 289.5 157.54 289.5 137.91 255.5 157.54 255.5 118.28 238.5 128.09"/><polygon class="cls-3" points="255.5 137.91 272.5 128.09 272.5 147.72 289.5 137.91 289.5 98.65 255.5 118.28 255.5 137.91"/><polygon class="cls-3" points="442.5 10.31 374.5 49.58 374.5 147.72 442.5 108.46 442.5 49.58 408.5 69.2 408.5 88.83 425.5 79.02 425.5 98.65 391.5 118.28 391.5 59.39 442.5 29.95 442.5 10.31"/></g><g id="KALRA-fill"><polyline class="cls-3" points="119.5 334.21 119.5 432.36 102.5 442.17 102.5 344.02"/><polyline class="cls-3" points="136.5 422.54 153.5 412.73 153.5 314.58 136.5 324.39"/><polyline class="cls-3" points="119.5 393.1 136.5 383.28 136.5 363.65 119.5 373.47"/><polyline class="cls-3" points="119.5 354.51 136.5 344.7 136.5 325.07 119.5 334.88"/><polyline class="cls-3" points="323.5 215.83 323.5 313.98 306.5 323.8 306.5 225.65"/><polyline class="cls-3" points="340.5 304.17 357.5 294.35 357.5 196.2 340.5 206.02"/><polyline class="cls-3" points="323.5 274.72 340.5 264.91 340.5 245.28 323.5 255.09"/><polyline class="cls-3" points="323.5 236.14 340.5 226.32 340.5 206.69 323.5 216.51"/><polygon class="cls-3" points="238 265.5 238 363.65 255 353.84 255 314.58 272 344.02 289 334.21 272 304.76 289 294.95 289 275.32 255 294.95 255 255.69 238 265.5"/><polygon class="cls-3" points="255 275.32 272 265.5 272 285.13 289 275.32 289 236.06 255 255.69 255 275.32"/><polygon class="cls-3" points="17.5 393.1 17.5 491.25 34.5 481.43 34.5 442.17 43 427.45 68.5 461.8 85.5 451.99 51.5 412.73 85.11 354.51 68.5 363.65 34.5 422.54 34.5 383.28 17.5 393.1"/><polygon class="cls-3" points="187.5 294.95 170.5 304.76 170.5 402.91 221.5 373.47 221.5 353.84 187.5 373.47 187.5 294.95"/></g><g id="KALRA"><g id="KALRA-front"><polygon class="cls-4" points="34.5 442.17 34.5 481.43 17.5 491.25 17.5 393.1 34.5 383.28 34.5 422.54 68.5 363.65 85.5 353.84 51.5 412.73 85.5 451.99 68.5 461.8 43 427.45 34.5 442.17"/><polygon class="cls-4" points="102.5 344.02 102.5 442.17 119.5 432.36 119.5 393.1 136.5 383.28 136.5 422.54 153.5 412.73 153.5 314.58 102.5 344.02"/><polygon class="cls-4" points="119.5 353.84 119.5 373.47 136.5 363.65 136.5 344.02 119.5 353.84"/><polygon class="cls-4" points="170.5 304.76 170.5 402.91 221.5 373.47 221.5 353.84 187.5 373.47 187.5 294.95 170.5 304.76"/><polygon class="cls-4" points="238.5 265.5 238.5 363.65 255.5 353.84 255.5 314.58 272.5 344.02 289.5 334.21 272.5 304.76 289.5 294.95 289.5 236.06 238.5 265.5"/><polygon class="cls-4" points="255.5 275.32 255.5 294.95 272.5 285.13 272.5 265.5 255.5 275.32"/><polygon class="cls-4" points="306.5 226.24 306.5 324.39 323.5 314.58 323.5 275.32 340.5 265.5 340.5 304.76 357.5 294.95 357.5 196.8 306.5 226.24"/><polygon class="cls-4" points="323.5 236.06 323.5 255.69 340.5 245.87 340.5 226.24 323.5 236.06"/></g><g id="KALRA-back"><line class="cls-4" x1="17.5" y1="393.1" x2="0.5" y2="383.28"/><polyline class="cls-4" points="68.5 461.8 51.5 451.99 38.49 435.26"/><polyline class="cls-4" points="85.5 353.84 68.5 344.02 51.5 353.84 68.5 363.65"/><polyline class="cls-4" points="51.5 353.84 34.5 383.28 17.5 373.47 0.5 383.28 0.5 481.43 17.5 491.25"/><polyline class="cls-4" points="153.5 314.58 136.5 304.76 85.5 334.21 85.5 432.36 102.5 442.17"/><line class="cls-4" x1="102.5" y1="344.02" x2="85.5" y2="334.21"/><line class="cls-4" x1="136.5" y1="363.65" x2="119.5" y2="353.84"/><line class="cls-4" x1="136.5" y1="422.54" x2="119.5" y2="412.73"/><polyline class="cls-4" points="187.5 294.95 170.5 285.13 153.5 294.95 153.5 393.1 170.5 402.91"/><line class="cls-4" x1="170.5" y1="304.76" x2="153.5" y2="294.95"/><polyline class="cls-4" points="238.5 363.65 221.5 353.84 204.5 344.02 187.5 353.84"/><polyline class="cls-4" points="289.5 236.06 272.5 226.24 221.5 255.69 221.5 353.84"/><line class="cls-4" x1="238.5" y1="265.5" x2="221.5" y2="255.69"/><line class="cls-4" x1="272.5" y1="285.13" x2="255.5" y2="275.32"/><line class="cls-4" x1="272.5" y1="344.02" x2="255.5" y2="334.21"/><polyline class="cls-4" points="306.5 324.39 289.5 314.58 289.5 216.43 340.5 186.98 357.5 196.8"/><line class="cls-4" x1="306.5" y1="226.24" x2="289.5" y2="216.43"/><line class="cls-4" x1="340.5" y1="245.87" x2="323.5" y2="236.06"/><line class="cls-4" x1="340.5" y1="304.76" x2="323.5" y2="294.95"/></g></g><g id="ANURAG"><g id="ANURAG-front"><polygon class="cls-4" points="17.5 255.69 17.5 353.84 34.5 344.02 34.5 304.76 51.5 294.95 51.5 334.21 68.5 324.39 68.5 226.24 17.5 255.69"/><polygon class="cls-4" points="34.5 265.5 34.5 285.13 51.5 275.32 51.5 255.69 34.5 265.5"/><polygon class="cls-4" points="85.5 216.43 85.5 314.58 102.5 304.76 102.5 245.87 136.5 285.13 153.5 275.32 153.5 177.17 136.5 186.98 136.5 245.87 102.5 206.61 85.5 216.43"/><polygon class="cls-4" points="170.5 167.35 170.5 265.5 221.5 236.06 221.5 137.91 204.5 147.72 204.5 226.24 187.5 236.06 187.5 157.54 170.5 167.35"/><polygon class="cls-4" points="238.5 128.09 238.5 226.24 255.5 216.43 255.5 177.17 272.5 206.61 289.5 196.8 272.5 167.35 289.5 157.54 289.5 98.65 238.5 128.09"/><polygon class="cls-4" points="255.5 137.91 255.5 157.54 272.5 147.72 272.5 128.09 255.5 137.91"/><polygon class="cls-4" points="306.5 88.83 306.5 186.98 323.5 177.17 323.5 137.91 340.5 128.09 340.5 167.35 357.5 157.54 357.5 59.39 306.5 88.83"/><polygon class="cls-4" points="323.5 98.65 323.5 118.28 340.5 108.46 340.5 88.83 323.5 98.65"/><polygon class="cls-4" points="374.5 49.58 374.5 147.72 442.5 108.46 442.5 49.58 408.5 69.2 408.5 88.83 425.5 79.02 425.5 98.65 391.5 118.28 391.5 59.39 442.5 29.95 442.5 10.31 374.5 49.58"/></g><g id="ANURAG-back"><polyline class="cls-4" points="17.5 353.84 0.5 344.02 0.5 245.87 51.5 216.43 68.5 226.24"/><line class="cls-4" x1="0.5" y1="245.87" x2="17.5" y2="255.69"/><line class="cls-4" x1="34.5" y1="265.5" x2="51.5" y2="275.32"/><polyline class="cls-4" points="85.5 314.58 68.5 304.76 68.5 206.61 85.5 216.43"/><polyline class="cls-4" points="102.5 206.61 85.5 196.8 68.5 206.61"/><polyline class="cls-4" points="153.5 177.17 136.5 167.35 119.5 177.17 136.5 186.98"/><line class="cls-4" x1="119.5" y1="177.17" x2="119.5" y2="226.24"/><polyline class="cls-4" points="136.5 285.13 119.5 275.32 102.5 255.69"/><polyline class="cls-4" points="170.5 265.5 153.5 255.69 153.5 157.54 170.5 167.35"/><polyline class="cls-4" points="221.5 137.91 204.5 128.09 187.5 137.91 204.5 147.72"/><polyline class="cls-4" points="187.5 137.91 187.5 157.54 170.5 147.72 153.5 157.54"/><line class="cls-4" x1="204.5" y1="226.24" x2="187.5" y2="216.43"/><polyline class="cls-4" points="289.5 98.65 272.5 88.83 221.5 118.28 221.5 216.43 238.5 226.24"/><line class="cls-4" x1="238.5" y1="128.09" x2="221.5" y2="118.28"/><polyline class="cls-4" points="357.5 59.39 340.5 49.58 289.5 79.02 289.5 177.17 306.5 186.98"/><line class="cls-4" x1="306.5" y1="88.83" x2="289.5" y2="79.02"/><polyline class="cls-4" points="442.5 10.31 425.5 0.5 357.5 39.76 357.5 137.91 374.5 147.72"/><line class="cls-4" x1="374.5" y1="49.57" x2="357.5" y2="39.76"/><line class="cls-4" x1="442.5" y1="49.57" x2="425.5" y2="39.76"/><line class="cls-4" x1="408.5" y1="69.2" x2="391.5" y2="59.39"/><line class="cls-4" x1="425.5" y1="98.65" x2="391.5" y2="79.02"/><line class="cls-4" x1="408.5" y1="88.83" x2="391.5" y2="98.65"/><line class="cls-4" x1="272.5" y1="147.72" x2="255.5" y2="137.91"/><line class="cls-4" x1="340.5" y1="167.35" x2="323.5" y2="157.54"/><line class="cls-4" x1="340.5" y1="108.46" x2="323.5" y2="98.65"/></g></g></svg>